<?xml version="1.0" standalone="no"?>
<!DOCTYPE svg PUBLIC "-//W3C//DTD SVG 20010904//EN"
 "http://www.w3.org/TR/2001/REC-SVG-20010904/DTD/svg10.dtd">
<svg version="1.0" xmlns="http://www.w3.org/2000/svg"
 width="283.000000pt" height="283.000000pt" viewBox="0 0 283.000000 283.000000"
 preserveAspectRatio="xMidYMid meet">
<metadata>
Created by potrace 1.11, written by Peter Selinger 2001-2013
</metadata>
<g transform="translate(0.000000,283.000000) scale(0.100000,-0.100000)"
fill="#000000" stroke="none">
<path d="M815 2382 c-22 -20 -76 -68 -119 -107 -44 -38 -84 -74 -90 -80 -29
-26 -185 -165 -215 -191 l-33 -29 6 -90 c5 -79 24 -192 41 -246 6 -18 -5 -19
-200 -21 l-206 -3 71 -142 72 -143 193 0 194 0 36 -62 c20 -35 45 -77 56 -94
l19 -31 -196 -1 c-108 0 -198 -3 -200 -5 -2 -2 29 -69 68 -148 l73 -144 215
-2 c118 -1 233 -2 255 -3 36 -1 48 -9 122 -80 45 -43 120 -109 165 -145 46
-36 90 -72 98 -78 8 -7 50 -37 93 -67 l77 -54 33 18 c85 49 296 217 414 329
l82 78 253 1 253 0 72 146 c40 80 71 147 69 150 -2 2 -93 4 -200 4 l-197 0 14
22 c7 11 33 54 56 94 l43 72 193 0 192 0 72 141 c39 77 71 142 71 144 0 3 -73
4 -162 4 -266 0 -250 -2 -243 20 17 54 36 167 41 247 l7 90 -34 28 c-19 16
-54 47 -79 70 -25 22 -84 75 -130 116 -47 41 -87 77 -90 80 -3 3 -42 38 -86
78 l-82 72 -558 0 -559 -1 -40 -37z m1070 -82 c38 0 52 -11 248 -186 115 -102
211 -192 213 -199 5 -12 -7 -115 -21 -187 -23 -119 -113 -324 -202 -463 -140
-217 -367 -452 -620 -643 l-84 -63 -27 17 c-107 69 -251 191 -399 341 -205
207 -347 414 -433 634 -28 71 -67 230 -75 306 l-7 62 38 33 c21 18 45 40 53
48 9 9 54 49 101 90 47 41 105 94 130 116 94 87 104 93 161 96 42 2 458 2 924
-2z"/>
<path d="M784 1926 c8 -60 12 -87 22 -146 3 -19 8 -48 10 -63 8 -63 24 -171
29 -197 2 -8 4 -24 4 -36 1 -11 14 -33 29 -50 15 -16 86 -96 157 -179 71 -82
140 -161 153 -175 13 -14 53 -60 90 -104 l67 -78 3 222 c1 123 0 225 -2 228
-3 2 -44 5 -91 5 l-85 1 0 94 0 94 -67 76 c-38 42 -77 86 -88 98 -11 11 -47
52 -80 89 -33 38 -82 94 -109 124 l-49 54 7 -57z"/>
<path d="M2010 1938 c-19 -23 -106 -122 -192 -219 l-158 -177 0 -95 0 -95 -87
1 -88 1 -2 -229 -3 -230 27 30 c106 122 140 161 153 175 8 8 53 60 100 115 47
55 90 105 96 110 6 6 35 39 66 75 60 70 56 57 84 260 3 19 12 76 19 125 19
117 28 195 24 195 -2 -1 -20 -19 -39 -42z"/>
<path d="M1337 1587 c-37 -78 -68 -144 -67 -147 0 -8 277 -6 285 1 7 8 -132
289 -143 288 -4 0 -38 -64 -75 -142z"/>
</g>
</svg>
